<svg aria-hidden="true" style="position:absolute;width:0;height:0" xmlns="http://www.w3.org/2000/svg" overflow="hidden">
  <defs>
    <symbol id="icon-flat-accent" viewBox="0 0 41 32">
      <path fill="var(--color1, #ff6b08)"
        d="M37.647.941C35.558.282 33.261 0 31.059 0c-3.671 0-7.624.753-10.353 2.824C17.977.753 14.024 0 10.353 0S2.729.753 0 2.824V30.4c0 .471.471.941.941.941.188 0 .282-.094.471-.094 2.541-1.224 6.212-2.071 8.941-2.071 3.671 0 7.624.753 10.353 2.824 2.541-1.6 7.153-2.824 10.353-2.824 3.106 0 6.306.565 8.941 1.976.188.094.282.094.471.094.471 0 .941-.471.941-.941V2.823c-1.129-.847-2.353-1.412-3.765-1.882zm0 25.412c-2.071-.659-4.329-.941-6.588-.941-3.2 0-7.812 1.224-10.353 2.824V6.589c2.541-1.6 7.153-2.824 10.353-2.824 2.259 0 4.518.282 6.588.941v21.647z" />
      <path fill="var(--color1, #ff6b08)"
        d="M31.059 11.294c1.656 0 3.256.169 4.706.489V8.922a25.447 25.447 0 0 0-4.706-.452c-3.2 0-6.099.546-8.471 1.562v3.125c2.127-1.205 5.082-1.864 8.471-1.864zm-8.471 3.746v3.125c2.127-1.205 5.082-1.864 8.471-1.864 1.656 0 3.256.169 4.706.489v-2.861a25.447 25.447 0 0 0-4.706-.452c-3.2 0-6.099.565-8.471 1.562zm8.471 3.464c-3.2 0-6.099.546-8.471 1.562v3.125c2.127-1.205 5.082-1.864 8.471-1.864 1.656 0 3.256.169 4.706.489v-2.861a23.913 23.913 0 0 0-4.706-.452z" />
    </symbol>
    <symbol id="icon-flat-dark-grey" viewBox="0 0 41 32">
      <path fill="var(--color2, #6d7a8d)"
        d="M37.647.941C35.558.282 33.261 0 31.059 0c-3.671 0-7.624.753-10.353 2.824C17.977.753 14.024 0 10.353 0S2.729.753 0 2.824V30.4c0 .471.471.941.941.941.188 0 .282-.094.471-.094 2.541-1.224 6.212-2.071 8.941-2.071 3.671 0 7.624.753 10.353 2.824 2.541-1.6 7.153-2.824 10.353-2.824 3.106 0 6.306.565 8.941 1.976.188.094.282.094.471.094.471 0 .941-.471.941-.941V2.823c-1.129-.847-2.353-1.412-3.765-1.882zm0 25.412c-2.071-.659-4.329-.941-6.588-.941-3.2 0-7.812 1.224-10.353 2.824V6.589c2.541-1.6 7.153-2.824 10.353-2.824 2.259 0 4.518.282 6.588.941v21.647z" />
      <path fill="var(--color2, #6d7a8d)"
        d="M31.059 11.294c1.656 0 3.256.169 4.706.489V8.922a25.447 25.447 0 0 0-4.706-.452c-3.2 0-6.099.546-8.471 1.562v3.125c2.127-1.205 5.082-1.864 8.471-1.864zm-8.471 3.746v3.125c2.127-1.205 5.082-1.864 8.471-1.864 1.656 0 3.256.169 4.706.489v-2.861a25.447 25.447 0 0 0-4.706-.452c-3.2 0-6.099.565-8.471 1.562zm8.471 3.464c-3.2 0-6.099.546-8.471 1.562v3.125c2.127-1.205 5.082-1.864 8.471-1.864 1.656 0 3.256.169 4.706.489v-2.861a23.913 23.913 0 0 0-4.706-.452z" />
    </symbol>
    <symbol id="icon-flat-grey" viewBox="0 0 41 32">
      <path fill="var(--color3, #a6abb9)"
        d="M37.647.941C35.558.282 33.261 0 31.059 0c-3.671 0-7.624.753-10.353 2.824C17.977.753 14.024 0 10.353 0S2.729.753 0 2.824V30.4c0 .471.471.941.941.941.188 0 .282-.094.471-.094 2.541-1.224 6.212-2.071 8.941-2.071 3.671 0 7.624.753 10.353 2.824 2.541-1.6 7.153-2.824 10.353-2.824 3.106 0 6.306.565 8.941 1.976.188.094.282.094.471.094.471 0 .941-.471.941-.941V2.823c-1.129-.847-2.353-1.412-3.765-1.882zm0 25.412c-2.071-.659-4.329-.941-6.588-.941-3.2 0-7.812 1.224-10.353 2.824V6.589c2.541-1.6 7.153-2.824 10.353-2.824 2.259 0 4.518.282 6.588.941v21.647z" />
      <path fill="var(--color3, #a6abb9)"
        d="M31.059 11.294c1.656 0 3.256.169 4.706.489V8.922a25.447 25.447 0 0 0-4.706-.452c-3.2 0-6.099.546-8.471 1.562v3.125c2.127-1.205 5.082-1.864 8.471-1.864zm-8.471 3.746v3.125c2.127-1.205 5.082-1.864 8.471-1.864 1.656 0 3.256.169 4.706.489v-2.861a25.447 25.447 0 0 0-4.706-.452c-3.2 0-6.099.565-8.471 1.562zm8.471 3.464c-3.2 0-6.099.546-8.471 1.562v3.125c2.127-1.205 5.082-1.864 8.471-1.864 1.656 0 3.256.169 4.706.489v-2.861a23.913 23.913 0 0 0-4.706-.452z" />
    </symbol>
    <symbol id="icon-arrow" viewBox="0 0 27 32">
      <path fill="var(--color1, #ff6b08)"
        d="M22.907 22.883c-.063-.305-.311-.447-.493-.638-1.316-1.39-2.653-2.768-3.972-4.159-.562-.59-.611-1.221-.168-1.669s1.062-.409 1.609.162a1630.82 1630.82 0 0 1 6.306 6.576c.644.676.636 1.149-.013 1.831a1675.173 1675.173 0 0 1-6.251 6.524c-.576.598-1.141.644-1.609.171s-.398-1.085.158-1.671c1.303-1.373 2.618-2.734 3.922-4.104.183-.192.424-.34.499-.644-.206-.211-.461-.111-.687-.111-6.87-.007-13.743-.011-20.619-.011-1.303 0-1.579-.296-1.579-1.654V1.669A4.14 4.14 0 0 1 .032.906C.143.343.485-.009 1.047.001s.893.365.997.929c.025.227.031.457.016.685 0 6.866.01 13.731-.012 20.589 0 .648.177.799.774.796 6.456-.021 12.912-.012 19.368-.017.249.012.505.101.718-.101z" />
    </symbol>
    <symbol id="icon-back" viewBox="0 0 64 32">
      <path fill="var(--color1, #ff6b08)"
        d="M.733 17.27l.002.002 13.063 13a2.5 2.5 0 0 0 3.528-3.544L8.555 18H61.5a2.5 2.5 0 1 0 0-5H8.555l8.77-8.728A2.499 2.499 0 1 0 13.797.729l-13.063 13-.002.002a2.502 2.502 0 0 0 0 3.539z" />
    </symbol>
    <symbol id="icon-delete" viewBox="0 0 25 32">
      <path fill="var(--color3, #a6abb9)"
        d="M19.556 10.667v17.778H5.334V10.667h14.222zM16.889 0H8L6.222 1.778H0v3.556h24.889V1.778h-6.222L16.889 0zm6.222 7.111H1.778v21.333C1.778 30.4 3.378 32 5.334 32h14.222c1.956 0 3.556-1.6 3.556-3.556V7.111z" />
    </symbol>
    <symbol id="icon-flag" viewBox="0 0 28 32">
      <path fill="var(--color3, #a6abb9)"
        d="M13.854 3.765l.753 3.765h9.864v11.294h-6.325l-.753-3.765H3.765V3.765h10.089zM16.941 0H0v32h3.765V18.824h10.541l.753 3.765h13.176V3.765H17.694L16.941 0z" />
    </symbol>
    <symbol id="icon-icon-home" viewBox="0 0 38 32">
      <path fill="var(--color3, #a6abb9)"
        d="M18.824 5.064l9.412 8.471v14.701h-3.765V16.942H13.177v11.294H9.412V13.535l9.412-8.471zm0-5.064L0 16.941h5.647V32h11.294V20.706h3.765V32H32V16.941h5.647L18.823 0z" />
    </symbol>
    <symbol id="icon-like" viewBox="0 0 35 32">
      <path fill="var(--color3, #a6abb9)"
        d="M12.696 31.478h14.087a3.11 3.11 0 0 0 2.88-1.91l4.727-11.035c.141-.36.219-.736.219-1.143v-3.13a3.14 3.14 0 0 0-3.13-3.13h-9.877l1.487-7.153.047-.501c0-.642-.266-1.237-.689-1.659L20.788.174 10.473 10.489a3.112 3.112 0 0 0-.908 2.207v15.652a3.14 3.14 0 0 0 3.13 3.13zm0-18.782l6.793-6.793-2.097 8.358h14.087v3.13l-4.696 10.957H12.696V12.696zm-12.522 0h6.261v18.783H.174V12.696z" />
    </symbol>
    <symbol id="icon-line-1" viewBox="0 0 4800 32">
      <path fill="var(--color3, #a6abb9)"
        d="M12.696 31.478h14.087a3.11 3.11 0 0 0 2.88-1.91l4.727-11.035c.141-.36.219-.736.219-1.143v-3.13a3.14 3.14 0 0 0-3.13-3.13h-9.877l1.487-7.153.047-.501c0-.642-.266-1.237-.689-1.659L20.788.174 10.473 10.489a3.112 3.112 0 0 0-.908 2.207v15.652a3.14 3.14 0 0 0 3.13 3.13zm0-18.782l6.793-6.793-2.097 8.358h14.087v3.13l-4.696 10.957H12.696V12.696zm-12.522 0h6.261v18.783H.174V12.696z" />
    </symbol>
    <symbol id="icon-line-4" viewBox="0 0 1 32">
      <path fill="none" stroke="var(--color4, #e0e5eb)" stroke-width=".97" d="M.485 0v32" />
    </symbol>
    <symbol id="icon-star" viewBox="0 0 34 32">
      <path fill="none" stroke="var(--color1, #ff6b08)" stroke-width="2"
        d="M17 3.236l3.09 9.511h10L22 18.625l.225.691 2.866 8.82-8.09-5.878-8.09 5.878 3.09-9.511-8.09-5.878h10l3.09-9.511z" />
    </symbol>
    <symbol id="icon-star-grey" viewBox="0 0 34 32">
      <path fill="none" stroke="var(--color3, #a6abb9)" stroke-width="2"
        d="M17 3.236l3.09 9.511h10L22 18.625l.225.691 2.866 8.82-8.09-5.878-8.09 5.878 3.09-9.511-8.09-5.878h10l3.09-9.511z" />
    </symbol>
    <symbol id="icon-star-hover" viewBox="0 0 34 32">
      <path fill="var(--color1, #ff6b08)"
        d="M17 0l3.817 11.747h12.351l-9.992 7.26 3.817 11.747-9.992-7.26-9.992 7.26 3.817-11.747-9.992-7.26h12.351L17.002 0z" />
    </symbol>
    <symbol id="icon-vector" viewBox="0 0 16 32">
      <path fill="var(--color1, #ff6b08)"
        d="M15.662 15.122L1.959.362C1.51-.121.783-.12.335.365s-.447 1.27.002 1.754l12.887 13.882L.336 29.882a1.311 1.311 0 0 0-.002 1.754c.225.243.519.365.813.365s.587-.121.811-.362l13.703-14.76c.216-.232.338-.549.338-.878s-.122-.645-.338-.878z" />
    </symbol>
    <symbol id="icon-Vector" viewBox="0 0 27 32">
      <path fill="#ff6b08" style="fill: var(--color1, #ff6b08)"
        d="M22.907 22.883c-0.063-0.305-0.311-0.447-0.493-0.638-1.316-1.39-2.653-2.768-3.972-4.159-0.562-0.59-0.611-1.221-0.168-1.669s1.062-0.409 1.609 0.162c2.108 2.186 4.21 4.378 6.306 6.576 0.644 0.676 0.636 1.149-0.013 1.831-2.078 2.181-4.162 4.355-6.251 6.524-0.576 0.598-1.141 0.644-1.609 0.171s-0.398-1.085 0.158-1.671c1.303-1.373 2.618-2.734 3.922-4.104 0.183-0.192 0.424-0.34 0.499-0.644-0.206-0.211-0.461-0.111-0.687-0.111-6.87-0.007-13.743-0.011-20.619-0.011-1.303 0-1.579-0.296-1.579-1.654 0-7.27 0-14.543 0-21.817-0.016-0.254-0.009-0.51 0.022-0.763 0.111-0.563 0.453-0.915 1.015-0.905s0.893 0.365 0.997 0.929c0.025 0.227 0.031 0.457 0.016 0.685 0 6.866 0.010 13.731-0.012 20.589 0 0.648 0.177 0.799 0.774 0.796 6.456-0.021 12.912-0.012 19.368-0.017 0.249 0.012 0.505 0.101 0.718-0.101z">
      </path>
    </symbol>
    <symbol id="icon-like" viewBox="0 0 35 32">
      <path fill="#a6abb9" style="fill: var(--color1, #a6abb9)"
        d="M12.696 31.478h14.087c1.299 0 2.41-0.783 2.88-1.91l4.727-11.035c0.141-0.36 0.219-0.736 0.219-1.143v-3.13c0-1.722-1.409-3.13-3.13-3.13h-9.877l1.487-7.153 0.047-0.501c0-0.642-0.266-1.237-0.689-1.659l-1.659-1.643-10.315 10.315c-0.563 0.563-0.908 1.346-0.908 2.207v15.652c0 1.722 1.409 3.13 3.13 3.13zM12.696 12.696l6.793-6.793-2.097 8.358h14.087v3.13l-4.696 10.957h-14.087v-15.652zM0.174 12.696h6.261v18.783h-6.261v-18.783z">
      </path>
    </symbol>
    <symbol id="icon-checkBox" viewBox="0 0 48 32">
      <path fill="#ff6b08" style="fill: var(--color1, #ff6b08)"
        d="M47.803 4.772l-29.761 27.049c-0.262 0.238-0.687 0.238-0.948 0l-16.898-15.359c-0.262-0.237-0.262-0.623 0-0.861l4.106-3.732c0.262-0.238 0.687-0.238 0.948 0l12.319 11.196 25.181-22.887c0.262-0.238 0.686-0.238 0.948 0l4.105 3.732c0.262 0.238 0.262 0.623 0 0.862z">
      </path>
    </symbol>
  </defs>
</svg>